<svg xmlns="http://www.w3.org/2000/svg" version="1.1" xmlns:xlink="http://www.w3.org/1999/xlink" xmlns:svgjs="http://svgjs.dev/svgjs" width="2000" height="1252" viewBox="0 0 2000 1252"><g transform="matrix(1,0,0,1,-1.2121212121212466,215.9567186379927)"><svg viewBox="0 0 396 248" data-background-color="#ffffff" preserveAspectRatio="xMidYMid meet" height="1252" width="2000" xmlns="http://www.w3.org/2000/svg" xmlns:xlink="http://www.w3.org/1999/xlink"><g id="tight-bounds" transform="matrix(1,0,0,1,0.2400000000000091,0.4000000000000057)"><svg viewBox="0 0 395.52 247.2" height="247.2" width="395.52"><g><svg></svg></g><g><svg viewBox="0 0 395.52 247.2" height="247.2" width="395.52"><g transform="matrix(1,0,0,1,75.54432,61.84121515609004)"><svg viewBox="0 0 244.43135999999998 123.51756968781991" height="123.51756968781991" width="244.43135999999998"><g><svg viewBox="0 0 244.43135999999998 123.51756968781991" height="123.51756968781991" width="244.43135999999998"><g><svg viewBox="0 0 244.43135999999998 123.51756968781991" height="123.51756968781991" width="244.43135999999998"><g transform="matrix(1,0,0,1,0,76.33881334620878)"><svg viewBox="0 0 244.43135999999998 47.178756341611134" height="47.178756341611134" width="244.43135999999998"><g id="textblocktransform"><svg viewBox="0 0 244.43135999999998 47.178756341611134" height="47.178756341611134" width="244.43135999999998" id="textblock"><g><svg viewBox="0 0 244.43135999999998 47.178756341611134" height="47.178756341611134" width="244.43135999999998"><g transform="matrix(1,0,0,1,0,0)"><svg width="244.43135999999998" viewBox="2.15 -34 247.63 47.800000000000004" height="47.178756341611134" data-palette-color="#2a160c"><path d="M5.6 0.5L5.6 0.5Q5 0.5 4.38 0.3 3.75 0.1 3.35-0.65 2.95-1.4 2.95-2.95L2.95-2.95Q2.95-3.95 3.13-5.53 3.3-7.1 3.5-8.6L3.5-8.6Q3.9-11.1 4.23-14.1 4.55-17.1 4.55-20.05L4.55-20.05Q4.55-21.1 4.5-22.25 4.45-23.4 4.3-24.45L4.3-24.45Q4-24.3 3.63-24.18 3.25-24.05 3-24.05L3-24.05Q2.5-24.05 2.33-24.58 2.15-25.1 2.15-25.8L2.15-25.8Q2.15-27.4 2.93-28.38 3.7-29.35 5.25-30.15L5.25-30.15Q7.3-31.3 9.63-31.83 11.95-32.35 14.05-32.35L14.05-32.35Q17.15-32.35 19.55-31.25 21.95-30.15 23.3-28.15 24.65-26.15 24.65-23.35L24.65-23.35Q24.65-20.45 23.28-18.2 21.9-15.95 19.78-14.53 17.65-13.1 15.45-12.65L15.45-12.65Q16.25-11.4 17.18-10.15 18.1-8.9 19.05-7.9L19.05-7.9Q21.9-4.95 24.85-4.95L24.85-4.95Q25.65-4.95 26.25-5.05L26.25-5.05Q26.55-5.1 26.78-4.83 27-4.55 27-3.75L27-3.75Q27-2.8 26.6-1.83 26.2-0.85 25.25-0.2 24.3 0.45 22.65 0.45L22.65 0.45Q20.7 0.45 18.93-0.85 17.15-2.15 15.65-4.17 14.15-6.2 12.98-8.45 11.8-10.7 11-12.6L11-12.6Q10.8-13.15 10.65-13.68 10.5-14.2 10.5-14.7L10.5-14.7Q10.5-15.55 11.05-16.1L11.05-16.1Q11.45-16.5 12.18-16.65 12.9-16.8 14.3-16.8L14.3-16.8Q16.95-16.8 18.6-18.25 20.25-19.7 20.25-22L20.25-22Q20.25-24.5 18.38-25.65 16.5-26.8 13.8-26.8L13.8-26.8Q11.6-26.8 9.2-26.1L9.2-26.1Q9.05-22.85 8.5-18.65L8.5-18.65Q8.2-16.15 7.98-13.7 7.75-11.25 7.75-9.25L7.75-9.25Q7.75-7.5 8.08-6.18 8.4-4.85 9.4-3.9L9.4-3.9Q10.1-3.2 10.1-2.4L10.1-2.4Q10.1-1.3 8.85-0.4 7.6 0.5 5.6 0.5ZM37.15 0.65L37.15 0.65Q33.35 0.65 31.22-1.53 29.1-3.7 29.1-7.6L29.1-7.6Q29.1-11.15 30.65-14.05 32.2-16.95 34.82-18.68 37.45-20.4 40.6-20.4L40.6-20.4Q43.6-20.4 45.4-18.93 47.2-17.45 47.2-15L47.2-15Q47.2-13.05 46-11.4 44.8-9.75 42.8-8.78 40.8-7.8 38.35-7.8L38.35-7.8Q35.35-7.8 33.45-9.15L33.45-9.15Q33.5-6.85 35.02-5.45 36.55-4.05 38.95-4.05L38.95-4.05Q40.4-4.05 41.92-4.58 43.45-5.1 44.55-6L44.55-6Q45.25-6.6 45.85-6.6L45.85-6.6Q46.35-6.6 46.67-6.28 47-5.95 47-5.45L47-5.45Q47-4.35 45.1-2.55L45.1-2.55Q41.75 0.65 37.15 0.65ZM37.9-11.1L37.9-11.1Q39.7-11.1 40.9-11.85 42.1-12.6 42.1-13.75L42.1-13.75Q42.1-14.7 41.3-15.23 40.5-15.75 39.1-15.75L39.1-15.75Q37.25-15.75 35.87-14.78 34.5-13.8 33.9-12.05L33.9-12.05Q34.6-11.6 35.7-11.35 36.8-11.1 37.9-11.1ZM58.09 0.65L58.09 0.65Q54.59 0.65 52.62-1.48 50.65-3.6 50.65-7.4L50.65-7.4Q50.65-11.15 52.24-14.1 53.84-17.05 56.65-18.75 59.45-20.45 63-20.45L63-20.45Q65.39-20.45 66.8-19.65 68.19-18.85 68.19-17.45L68.19-17.45Q68.19-16.2 67-15L67-15Q66.55-14.55 65.82-14.18 65.09-13.8 64.69-13.8L64.69-13.8Q64.25-13.8 63.95-14.15L63.95-14.15Q63.45-14.7 62.65-15.2 61.84-15.7 60.4-15.7L60.4-15.7Q57.95-15.7 56.4-14.03 54.84-12.35 54.84-9.65L54.84-9.65Q54.84-7.2 56.25-5.7 57.65-4.2 59.95-4.2L59.95-4.2Q61.15-4.2 62.57-4.63 64-5.05 65.09-5.85L65.09-5.85Q65.64-6.35 66.25-6.35L66.25-6.35Q67.25-6.35 67.25-5.1L67.25-5.1Q67.25-3.45 65.59-1.95L65.59-1.95Q64.34-0.8 62.27-0.08 60.2 0.65 58.09 0.65ZM75.54-24.85L75.54-24.85Q74.14-24.9 73.29-25.7 72.44-26.5 72.44-27.95L72.44-27.95Q72.49-29.5 73.49-30.48 74.49-31.45 76.04-31.4L76.04-31.4Q77.49-31.35 78.32-30.55 79.14-29.75 79.09-28.3L79.09-28.3Q79.04-26.8 78.09-25.83 77.14-24.85 75.54-24.85ZM75.59 0.5L75.59 0.5Q74.09 0.5 73.24-0.33 72.39-1.15 72.39-3.15L72.39-3.15Q72.39-4.3 72.62-5.4 72.84-6.5 73.14-7.55L73.14-7.55Q73.49-8.65 73.72-9.8 73.94-10.95 73.94-12.25L73.94-12.25Q73.94-13.15 73.69-13.98 73.44-14.8 72.59-15.2L72.59-15.2Q71.94-15.55 71.47-15.93 70.99-16.3 70.99-16.9L70.99-16.9Q70.99-17.6 71.64-18.4 72.29-19.2 73.37-19.78 74.44-20.35 75.59-20.35L75.59-20.35Q76.84-20.35 77.42-19.7 77.99-19.05 78.19-18.05 78.39-17.05 78.39-16L78.39-16Q78.39-14.4 78.14-12.88 77.89-11.35 77.64-10.05L77.64-10.05Q77.44-9.1 77.34-8.3 77.24-7.5 77.24-6.8L77.24-6.8Q77.24-5.55 77.84-4.93 78.44-4.3 79.54-3.75L79.54-3.75Q79.99-3.5 79.99-3L79.99-3Q79.99-2.6 79.59-1.75 79.19-0.9 78.22-0.2 77.24 0.5 75.59 0.5ZM86.89 13.8L86.89 13.8Q85.39 13.8 84.54 12.98 83.69 12.15 83.69 10L83.69 10Q83.69 8.55 84.02 6.35 84.34 4.15 84.79 1.7L84.79 1.7Q85.14-0.25 85.47-2.4 85.79-4.55 86.02-6.63 86.24-8.7 86.24-10.35L86.24-10.35Q86.24-12.25 85.81-13.65 85.39-15.05 84.09-15.45L84.09-15.45Q83.59-15.65 83.19-15.9 82.79-16.15 82.79-16.7L82.79-16.7Q82.79-17.4 83.34-18.25 83.89-19.1 84.92-19.73 85.94-20.35 87.24-20.35L87.24-20.35Q88.94-20.35 89.59-19.18 90.24-18 90.24-16.1L90.24-16.1Q90.24-15.55 90.19-14.98 90.14-14.4 90.04-13.8L90.04-13.8Q91.49-16.6 93.87-18.53 96.24-20.45 99.24-20.45L99.24-20.45Q102.24-20.45 103.97-18.43 105.69-16.4 105.69-12.95L105.69-12.95Q105.69-10.4 104.89-7.98 104.09-5.55 102.64-3.6 101.19-1.65 99.17-0.5 97.14 0.65 94.64 0.65L94.64 0.65Q92.84 0.65 91.49 0.03 90.14-0.6 89.14-1.6L89.14-1.6Q88.94-0.3 88.77 1.55 88.59 3.4 88.59 5L88.59 5Q88.59 6.85 89.02 7.9 89.44 8.95 90.69 9.5L90.69 9.5Q91.24 9.75 91.24 10.3L91.24 10.3Q91.24 10.7 90.84 11.55 90.44 12.4 89.52 13.1 88.59 13.8 86.89 13.8ZM95.79-4.75L95.79-4.75Q98.64-4.75 100.19-6.55 101.74-8.35 101.74-10.7L101.74-10.7Q101.74-12.75 100.64-13.88 99.54-15 97.69-15L97.69-15Q95.79-15 94.34-13.88 92.89-12.75 91.87-10.95 90.84-9.15 90.19-7.1L90.19-7.1Q92.69-4.75 95.79-4.75ZM117.39 0.65L117.39 0.65Q113.59 0.65 111.46-1.53 109.34-3.7 109.34-7.6L109.34-7.6Q109.34-11.15 110.89-14.05 112.44-16.95 115.06-18.68 117.69-20.4 120.84-20.4L120.84-20.4Q123.84-20.4 125.64-18.93 127.44-17.45 127.44-15L127.44-15Q127.44-13.05 126.24-11.4 125.04-9.75 123.04-8.78 121.04-7.8 118.59-7.8L118.59-7.8Q115.59-7.8 113.69-9.15L113.69-9.15Q113.74-6.85 115.26-5.45 116.79-4.05 119.19-4.05L119.19-4.05Q120.64-4.05 122.16-4.58 123.69-5.1 124.79-6L124.79-6Q125.49-6.6 126.09-6.6L126.09-6.6Q126.59-6.6 126.91-6.28 127.24-5.95 127.24-5.45L127.24-5.45Q127.24-4.35 125.34-2.55L125.34-2.55Q121.99 0.65 117.39 0.65ZM118.14-11.1L118.14-11.1Q119.94-11.1 121.14-11.85 122.34-12.6 122.34-13.75L122.34-13.75Q122.34-14.7 121.54-15.23 120.74-15.75 119.34-15.75L119.34-15.75Q117.49-15.75 116.11-14.78 114.74-13.8 114.14-12.05L114.14-12.05Q114.84-11.6 115.94-11.35 117.04-11.1 118.14-11.1ZM134.98 0.5L134.98 0.5Q134.38 0.5 133.76 0.3 133.13 0.1 132.73-0.65 132.33-1.4 132.33-2.95L132.33-2.95Q132.33-3.95 132.51-5.53 132.69-7.1 132.88-8.6L132.88-8.6Q133.28-11.1 133.61-14.1 133.94-17.1 133.94-20.05L133.94-20.05Q133.94-21.1 133.88-22.25 133.83-23.4 133.69-24.45L133.69-24.45Q133.38-24.3 133.01-24.18 132.63-24.05 132.38-24.05L132.38-24.05Q131.88-24.05 131.71-24.58 131.53-25.1 131.53-25.8L131.53-25.8Q131.53-27.4 132.31-28.38 133.08-29.35 134.63-30.15L134.63-30.15Q136.69-31.3 139.01-31.83 141.33-32.35 143.44-32.35L143.44-32.35Q146.53-32.35 148.94-31.25 151.33-30.15 152.69-28.15 154.03-26.15 154.03-23.35L154.03-23.35Q154.03-20.45 152.66-18.2 151.28-15.95 149.16-14.53 147.03-13.1 144.83-12.65L144.83-12.65Q145.63-11.4 146.56-10.15 147.48-8.9 148.44-7.9L148.44-7.9Q151.28-4.95 154.23-4.95L154.23-4.95Q155.03-4.95 155.63-5.05L155.63-5.05Q155.94-5.1 156.16-4.83 156.38-4.55 156.38-3.75L156.38-3.75Q156.38-2.8 155.98-1.83 155.58-0.85 154.63-0.2 153.69 0.45 152.03 0.45L152.03 0.45Q150.08 0.45 148.31-0.85 146.53-2.15 145.03-4.17 143.53-6.2 142.36-8.45 141.19-10.7 140.38-12.6L140.38-12.6Q140.19-13.15 140.03-13.68 139.88-14.2 139.88-14.7L139.88-14.7Q139.88-15.55 140.44-16.1L140.44-16.1Q140.83-16.5 141.56-16.65 142.28-16.8 143.69-16.8L143.69-16.8Q146.33-16.8 147.98-18.25 149.63-19.7 149.63-22L149.63-22Q149.63-24.5 147.76-25.65 145.88-26.8 143.19-26.8L143.19-26.8Q140.98-26.8 138.58-26.1L138.58-26.1Q138.44-22.85 137.88-18.65L137.88-18.65Q137.58-16.15 137.36-13.7 137.13-11.25 137.13-9.25L137.13-9.25Q137.13-7.5 137.46-6.18 137.78-4.85 138.78-3.9L138.78-3.9Q139.48-3.2 139.48-2.4L139.48-2.4Q139.48-1.3 138.23-0.4 136.98 0.5 134.98 0.5ZM164.58 0.65L164.58 0.65Q161.58 0.65 159.76-1.23 157.93-3.1 157.93-6.6L157.93-6.6Q157.93-9.1 158.91-11.58 159.88-14.05 161.73-16.05 163.58-18.05 166.18-19.25 168.78-20.45 172.03-20.45L172.03-20.45Q175.03-20.45 177.16-19.43 179.28-18.4 179.28-16.65L179.28-16.65Q179.28-16.2 179.18-15.48 179.08-14.75 178.93-14.3L178.93-14.3Q178.78-13.9 178.51-13.58 178.23-13.25 177.78-13.25L177.78-13.25Q177.58-13.25 177.03-13.4L177.03-13.4Q176.83-12.35 176.73-11.35 176.63-10.35 176.63-9.35L176.63-9.35Q176.63-7.45 177.21-5.98 177.78-4.5 179.48-4.15L179.48-4.15Q179.93-4.05 180.21-3.85 180.48-3.65 180.48-3L180.48-3Q180.48-2.45 180.21-1.6 179.93-0.75 179.16-0.08 178.38 0.6 176.93 0.6L176.93 0.6Q174.98 0.6 173.93-0.83 172.88-2.25 172.88-4.9L172.88-4.9Q171.53-2.45 169.46-0.9 167.38 0.65 164.58 0.65ZM166.18-4.55L166.18-4.55Q168.18-4.55 169.71-5.8 171.23-7.05 172.08-8.95L172.08-8.95Q172.63-10.15 172.93-11.58 173.23-13 173.33-14.4L173.33-14.4Q172.48-14.8 171.38-15.05 170.28-15.3 169.08-15.3L169.08-15.3Q166.03-15.3 164.06-13.5 162.08-11.7 162.08-9L162.08-9Q162.08-7 163.18-5.78 164.28-4.55 166.18-4.55ZM189.83 0.65L189.83 0.65Q186.83 0.65 185.11-1.35 183.38-3.35 183.38-6.8L183.38-6.8Q183.38-9.35 184.21-11.8 185.03-14.25 186.53-16.2 188.03-18.15 190.03-19.3 192.03-20.45 194.38-20.45L194.38-20.45Q195.88-20.45 197.06-20 198.23-19.55 199.13-18.85L199.13-18.85Q199.08-22.25 198.78-24.95 198.48-27.65 197.33-29.95L197.33-29.95Q197.13-30.35 197-30.68 196.88-31 196.88-31.3L196.88-31.3Q196.88-32 197.46-32.6 198.03-33.2 198.88-33.6 199.73-34 200.48-34L200.48-34Q201.83-34 202.5-32.83 203.18-31.65 203.38-29.63 203.58-27.6 203.58-25L203.58-25Q203.58-21.2 203.23-18.15 202.88-15.1 202.58-12.8L202.58-12.8Q202.38-11.3 202.23-10.2 202.08-9.1 202.08-8.4L202.08-8.4Q202.08-4.85 205.13-4.2L205.13-4.2Q205.93-4.05 205.93-3.15L205.93-3.15Q205.93-2.6 205.61-1.75 205.28-0.9 204.43-0.23 203.58 0.45 201.98 0.45L201.98 0.45Q199.83 0.45 199.08-1 198.33-2.45 198.33-5.4L198.33-5.4Q196.93-2.85 194.78-1.1 192.63 0.65 189.83 0.65ZM191.38-4.7L191.38-4.7Q192.78-4.7 194.18-5.6 195.58-6.5 196.68-8.05L196.68-8.05Q197.33-9 197.86-10.23 198.38-11.45 198.83-12.7L198.83-12.7Q196.28-15 193.18-15L193.18-15Q190.48-15 188.88-13.38 187.28-11.75 187.28-9.35L187.28-9.35Q187.28-7.3 188.48-6 189.68-4.7 191.38-4.7ZM215.38 0.65L215.38 0.65Q212.38 0.65 210.55-1.23 208.73-3.1 208.73-6.6L208.73-6.6Q208.73-9.1 209.7-11.58 210.68-14.05 212.53-16.05 214.38-18.05 216.98-19.25 219.58-20.45 222.83-20.45L222.83-20.45Q225.83-20.45 227.95-19.43 230.08-18.4 230.08-16.65L230.08-16.65Q230.08-16.2 229.98-15.48 229.88-14.75 229.73-14.3L229.73-14.3Q229.58-13.9 229.3-13.58 229.03-13.25 228.58-13.25L228.58-13.25Q228.38-13.25 227.83-13.4L227.83-13.4Q227.63-12.35 227.53-11.35 227.43-10.35 227.43-9.35L227.43-9.35Q227.43-7.45 228-5.98 228.58-4.5 230.28-4.15L230.28-4.15Q230.73-4.05 231-3.85 231.28-3.65 231.28-3L231.28-3Q231.28-2.45 231-1.6 230.73-0.75 229.95-0.08 229.18 0.6 227.73 0.6L227.73 0.6Q225.78 0.6 224.73-0.83 223.68-2.25 223.68-4.9L223.68-4.9Q222.33-2.45 220.25-0.9 218.18 0.65 215.38 0.65ZM216.98-4.55L216.98-4.55Q218.98-4.55 220.5-5.8 222.03-7.05 222.88-8.95L222.88-8.95Q223.43-10.15 223.73-11.58 224.03-13 224.13-14.4L224.13-14.4Q223.28-14.8 222.18-15.05 221.08-15.3 219.88-15.3L219.88-15.3Q216.83-15.3 214.85-13.5 212.88-11.7 212.88-9L212.88-9Q212.88-7 213.98-5.78 215.08-4.55 216.98-4.55ZM237.38 0.55L237.38 0.55Q236.58 0.55 236.1 0.28 235.63 0 235.78-0.65L235.78-0.65Q236.33-2.8 236.7-5.03 237.08-7.25 237.08-9.3L237.08-9.3Q237.08-11.95 236.75-13.18 236.43-14.4 235.88-14.88 235.33-15.35 234.53-15.6L234.53-15.6Q234.18-15.75 233.9-16 233.63-16.25 233.63-16.7L233.63-16.7Q233.63-17.4 234.18-18.25 234.73-19.1 235.73-19.73 236.73-20.35 238.03-20.35L238.03-20.35Q239.73-20.35 240.4-19.18 241.08-18 241.08-16.1L241.08-16.1Q241.98-18.1 243.3-19.28 244.63-20.45 246.63-20.45L246.63-20.45Q247.98-20.45 248.88-19.85 249.78-19.25 249.78-17.9L249.78-17.9Q249.78-16.55 248.9-15.38 248.03-14.2 247.13-14.2L247.13-14.2Q246.98-14.2 246.78-14.25 246.58-14.3 246.43-14.5L246.43-14.5Q245.78-15.3 244.83-15.3L244.83-15.3Q243.38-15.3 242.28-13.4 241.18-11.5 241.08-8.15L241.08-8.15Q241.13-6.9 241.15-5.6 241.18-4.3 241.18-3.7L241.18-3.7Q241.18-1.85 240.15-0.65 239.13 0.55 237.38 0.55Z" opacity="1" transform="matrix(1,0,0,1,0,0)" fill="#2a160c" class="wordmark-text-0" data-fill-palette-color="primary" id="text-0"></path></svg></g></svg></g></svg></g></svg></g><g transform="matrix(1,0,0,1,88.78399572804011,0)"><svg viewBox="0 0 66.86336854391975 65.20104126410659" height="65.20104126410659" width="66.86336854391975"><g><svg xmlns="http://www.w3.org/2000/svg" xmlns:xlink="http://www.w3.org/1999/xlink" version="1.1" x="0" y="0" viewBox="4.642360050490633 7.340823937680118 90.0005972110074 87.76304246015664" enable-background="new 0 0 100 100" xml:space="preserve" height="65.20104126410659" width="66.86336854391975" class="icon-icon-0" data-fill-palette-color="accent" id="icon-0"><path d="M34.065 95.103S28.157 95.371 27.624 86.48L23.311 59.227S5.587 56.137 4.683 40.542C4.683 40.542 3.193 25.795 18.257 20.101 18.257 20.101 20.547 18.292 28.372 18.397 28.372 18.397 35.559 6.526 49.769 7.432 49.769 7.432 60.737 5.622 70.849 18.131 70.849 18.131 85.06 17.12 92.194 29.735 92.194 29.735 100.445 43.203 86.657 54.487 86.657 54.487 83.197 57.574 76.81 59.065L73.245 88.395S73.455 93.345 69.466 94.304L69.678 50.442S69.04 46.822 65.527 46.874C65.527 46.874 62.172 46.716 61.482 50.442V76.42H64.249V95.103H55.467V66.41S58.341 65.948 58.713 63.225V47.887S58.951 46.741 57.882 46.804C56.81 46.867 56.956 47.224 56.956 47.833V58.895H55.277V47.75S55.235 46.742 54.481 46.953C54.481 46.953 53.621 46.763 53.579 47.771 53.537 48.777 53.579 58.811 53.579 58.811H51.9V47.853S52.025 46.784 51.165 46.805C50.304 46.826 50.24 47.477 50.24 47.939V58.833H48.625V47.434S48.708 46.679 47.784 46.784C46.863 46.89 46.882 47.413 46.882 47.644V63.033S46.609 65.886 50.241 66.179V95.103H39.071V68.363S45.538 64.834 44.866 57.783C44.866 57.783 45.37 49.134 37.643 46.952 37.643 46.952 29.583 46.447 28.408 56.523 28.408 56.523 27.567 65.253 33.95 68.195z" fill="#99592a" data-fill-palette-color="accent"></path></svg></g></svg></g><g></g></svg></g></svg></g></svg></g><g><path d="M99.664 50.703A122.216 122.216 0 0 1 295.856 50.703L291.601 50.703A117.961 117.961 0 0 0 103.919 50.703L99.664 50.703M99.664 196.497A122.216 122.216 0 0 0 295.856 196.497L291.601 196.497A117.961 117.961 0 0 1 103.919 196.497L99.664 196.497" fill="#2a160c" stroke="transparent" data-fill-palette-color="tertiary"></path></g></svg></g><defs></defs></svg><rect width="395.52" height="247.2" fill="none" stroke="none" visibility="hidden"></rect></g></svg></g></svg>